<?xml version="1.0" ?><svg style="enable-background:new 0 0 64 64;" version="1.1" viewBox="0 0 64 64" xml:space="preserve" xmlns="http://www.w3.org/2000/svg" xmlns:xlink="http://www.w3.org/1999/xlink"><style type="text/css">
	.st0{display:none;}
	.st1{display:inline;}
	.st2{fill:none;stroke:#B3B3B3;stroke-width:0.1;stroke-miterlimit:10;}
</style><g class="st0" id="Layer_1"><g class="st1"><rect class="st2" height="60" width="60" x="2" y="2"/><line class="st2" x1="32" x2="32" y1="2" y2="62"/><line class="st2" x1="62" x2="2" y1="32" y2="32"/><line class="st2" x1="2" x2="62" y1="2" y2="62"/><rect class="st2" height="44" width="44" x="10" y="10"/><line class="st2" x1="62" x2="2" y1="2" y2="62"/><line class="st2" x1="2" x2="32" y1="32" y2="2"/><line class="st2" x1="32" x2="62" y1="2" y2="32"/><line class="st2" x1="62" x2="32" y1="32" y2="62"/><line class="st2" x1="32" x2="2" y1="62" y2="32"/><circle class="st2" cx="32" cy="32" r="21"/></g></g><g id="Layer_2"><g><g><path d="M27,28c0-0.6,0.4-1,1-1h2v-2h-2c-1.7,0-3,1.3-3,3v1c0,1.1-0.9,2-2,2h0v2h0c1.1,0,2,0.9,2,2v1c0,1.7,1.3,3,3,3h2v-2h-2     c-0.6,0-1-0.4-1-1v-1.8c0-0.9-0.4-1.7-1-2.2c0.6-0.6,1-1.4,1-2.2V28z"/></g></g><g><g><path d="M37,28c0-0.6-0.4-1-1-1h-2v-2h2c1.7,0,3,1.3,3,3v1c0,1.1,0.9,2,2,2h0v2h0c-1.1,0-2,0.9-2,2v1c0,1.7-1.3,3-3,3h-2v-2h2     c0.6,0,1-0.4,1-1v-1.8c0-0.9,0.4-1.7,1-2.2c-0.6-0.6-1-1.4-1-2.2V28z"/></g></g><g><path d="M42,45H22c-1.7,0-3-1.3-3-3V22c0-1.7,1.3-3,3-3h20c1.7,0,3,1.3,3,3v20C45,43.7,43.7,45,42,45z M22,21c-0.6,0-1,0.4-1,1v20    c0,0.6,0.4,1,1,1h20c0.6,0,1-0.4,1-1V22c0-0.6-0.4-1-1-1H22z"/></g><g><path d="M46,51H18c-2.8,0-5-2.2-5-5V18c0-2.8,2.2-5,5-5h28c2.8,0,5,2.2,5,5v28C51,48.8,48.8,51,46,51z M18,15c-1.7,0-3,1.3-3,3v28    c0,1.7,1.3,3,3,3h28c1.7,0,3-1.3,3-3V18c0-1.7-1.3-3-3-3H18z"/></g><path d="M16,5.7c0.6-0.3,1-1,1-1.7c0-1.1-0.9-2-2-2s-2,0.9-2,2c0,0.7,0.4,1.4,1,1.7V11h5v3h2V9h-5V5.7z"/><path d="M26,2c-1.1,0-2,0.9-2,2c0,0.7,0.4,1.4,1,1.7V14h2V5.7c0.6-0.3,1-1,1-1.7C28,2.9,27.1,2,26,2z"/><path d="M32,2c-1.1,0-2,0.9-2,2c0,0.7,0.4,1.4,1,1.7V14h2V5.7c0.6-0.3,1-1,1-1.7C34,2.9,33.1,2,32,2z"/><path d="M38,2c-1.1,0-2,0.9-2,2c0,0.7,0.4,1.4,1,1.7V14h2V5.7c0.6-0.3,1-1,1-1.7C40,2.9,39.1,2,38,2z"/><path d="M51,4c0-1.1-0.9-2-2-2s-2,0.9-2,2c0,0.7,0.4,1.4,1,1.7V9h-5v5h2v-3h5V5.7C50.6,5.4,51,4.7,51,4z"/><path d="M5.7,48c-0.3-1-1-1-1.7-1c-1.1,0-2,0.9-2,2s0.9,2,2,2c0.7,0,1.4,0,1.7-1H11v-5h3v-2H9v5H5.7z"/><path d="M2,38c0,1.1,0.9,2,2,2c0.7,0,1.4,0,1.7-1H14v-2H5.7c-0.3-1-1-1-1.7-1C2.9,36,2,36.9,2,38z"/><path d="M2,32c0,1.1,0.9,2,2,2c0.7,0,1.4,0,1.7-1H14v-2H5.7c-0.3-1-1-1-1.7-1C2.9,30,2,30.9,2,32z"/><path d="M2,26c0,1.1,0.9,2,2,2c0.7,0,1.4,0,1.7-1H14v-2H5.7c-0.3-1-1-1-1.7-1C2.9,24,2,24.9,2,26z"/><path d="M4,13c-1.1,0-2,0.9-2,2s0.9,2,2,2c0.7,0,1.4,0,1.7-1H9v5h5v-2h-3v-5H5.7C5.4,13,4.7,13,4,13z"/><path d="M48,58.3c-1,0.3-1,1-1,1.7c0,1.1,0.9,2,2,2s2-0.9,2-2c0-0.7,0-1.4-1-1.7V53h-5v-3h-2v5h5V58.3z"/><path d="M38,62c1.1,0,2-0.9,2-2c0-0.7,0-1.4-1-1.7V50h-2v8.3c-1,0.3-1,1-1,1.7C36,61.1,36.9,62,38,62z"/><path d="M32,62c1.1,0,2-0.9,2-2c0-0.7,0-1.4-1-1.7V50h-2v8.3c-1,0.3-1,1-1,1.7C30,61.1,30.9,62,32,62z"/><path d="M26,62c1.1,0,2-0.9,2-2c0-0.7,0-1.4-1-1.7V50h-2v8.3c-1,0.3-1,1-1,1.7C24,61.1,24.9,62,26,62z"/><path d="M13,60c0,1.1,0.9,2,2,2s2-0.9,2-2c0-0.7,0-1.4-1-1.7V55h5v-5h-2v3h-5v5.3C13,58.6,13,59.3,13,60z"/><path d="M58.3,16c0.3,1,1,1,1.7,1c1.1,0,2-0.9,2-2s-0.9-2-2-2c-0.7,0-1.4,0-1.7,1H53v5h-3v2h5v-5H58.3z"/><path d="M62,26c0-1.1-0.9-2-2-2c-0.7,0-1.4,0-1.7,1H50v2h8.3c0.3,1,1,1,1.7,1C61.1,28,62,27.1,62,26z"/><path d="M62,32c0-1.1-0.9-2-2-2c-0.7,0-1.4,0-1.7,1H50v2h8.3c0.3,1,1,1,1.7,1C61.1,34,62,33.1,62,32z"/><path d="M62,38c0-1.1-0.9-2-2-2c-0.7,0-1.4,0-1.7,1H50v2h8.3c0.3,1,1,1,1.7,1C61.1,40,62,39.1,62,38z"/><path d="M60,51c1.1,0,2-0.9,2-2s-0.9-2-2-2c-0.7,0-1.4,0-1.7,1H55v-5h-5v2h3v5h5.3C58.6,51,59.3,51,60,51z"/></g></svg>