<?xml version="1.0" ?><svg height="48" viewBox="0 0 48 48" width="48" xmlns="http://www.w3.org/2000/svg"><defs><style>.cls-1{fill:none;stroke:#000;stroke-linejoin:round;stroke-width:2px;}</style></defs><title/><g data-name="03-setting" id="_03-setting"><path class="cls-1" d="M9,13H8a2,2,0,0,0-2,2V39a2,2,0,0,0,2,2H40a2,2,0,0,0,2-2V15a2,2,0,0,0-2-2H39"/><line class="cls-1" x1="15" x2="33" y1="47" y2="47"/><line class="cls-1" x1="18" x2="18" y1="42" y2="47"/><line class="cls-1" x1="30" x2="30" y1="41" y2="47"/><path class="cls-1" d="M36,15V11H32.769a8.943,8.943,0,0,0-1.156-2.785L33.9,5.929,31.071,3.1,28.785,5.387A8.943,8.943,0,0,0,26,4.231V1H22V4.231a8.943,8.943,0,0,0-2.785,1.156L16.929,3.1,14.1,5.929l2.286,2.286A8.943,8.943,0,0,0,15.231,11H12v4h3.231a8.943,8.943,0,0,0,1.156,2.785L14.1,20.071,16.929,22.9l2.286-2.286A8.943,8.943,0,0,0,22,21.769V25h4V21.769a8.943,8.943,0,0,0,2.785-1.156L31.071,22.9,33.9,20.071l-2.286-2.286A8.943,8.943,0,0,0,32.769,15Z"/><circle class="cls-1" cx="24" cy="13" r="3"/><line class="cls-1" x1="24" x2="24" y1="28" y2="34"/><line class="cls-1" x1="24" x2="24" y1="36" y2="38"/><line class="cls-1" x1="30" x2="30" y1="26" y2="32"/><line class="cls-1" x1="30" x2="30" y1="34" y2="36"/><line class="cls-1" x1="18" x2="18" y1="26" y2="32"/><line class="cls-1" x1="18" x2="18" y1="34" y2="36"/><line class="cls-1" x1="6" x2="15" y1="35" y2="35"/><line class="cls-1" x1="42" x2="33" y1="35" y2="35"/></g></svg>