<svg xmlns="http://www.w3.org/2000/svg" xmlns:xlink="http://www.w3.org/1999/xlink" width="1920" zoomAndPan="magnify" viewBox="0 0 1440 809.999993" height="1080" preserveAspectRatio="xMidYMid meet" version="1.0"><defs><clipPath id="66f3740ad8"><path d="M 786 154 L 1319 154 L 1319 676.09375 L 786 676.09375 Z M 786 154 " clip-rule="nonzero"/></clipPath><clipPath id="409b988f40"><path d="M 783.957031 416 L 1207 416 L 1207 432 L 783.957031 432 Z M 783.957031 416 " clip-rule="nonzero"/></clipPath><clipPath id="889a165973"><path d="M 989 133.84375 L 1150 133.84375 L 1150 212 L 989 212 Z M 989 133.84375 " clip-rule="nonzero"/></clipPath><clipPath id="46b2ae5a50"><path d="M 1280 366 L 1349.457031 366 L 1349.457031 447 L 1280 447 Z M 1280 366 " clip-rule="nonzero"/></clipPath></defs><rect x="-144" width="1728" fill="#ffffff" y="-80.999999" height="971.999992" fill-opacity="1"/><rect x="-144" width="1728" fill="#ffffff" y="-80.999999" height="971.999992" fill-opacity="1"/><rect x="-144" width="1728" fill="#ffffff" y="-80.999999" height="971.999992" fill-opacity="1"/><g clip-path="url(#66f3740ad8)"><path fill="#f8f6f0" d="M 786.136719 379.945312 C 786.136719 504.289062 905.328125 605.089844 1052.351562 605.089844 L 985.824219 676.066406 L 1123.351562 596.996094 C 1235.910156 570.714844 1318.570312 483.496094 1318.570312 379.945312 C 1318.570312 255.601562 1199.378906 154.800781 1052.351562 154.800781 C 905.328125 154.800781 786.136719 255.601562 786.136719 379.945312 Z M 786.136719 379.945312 " fill-opacity="1" fill-rule="nonzero"/></g><path fill="#f0a58c" d="M 957.796875 398.480469 C 947.980469 401.96875 947 415.925781 948.964844 418.214844 C 949.738281 419.121094 952.019531 420.265625 955.058594 420.941406 C 957.996094 421.59375 961.636719 421.804688 965.316406 420.941406 C 967.460938 420.4375 969.613281 419.570312 971.648438 418.214844 C 976.796875 420.742188 983.390625 418.6875 986.042969 417.34375 L 990.1875 419.085938 L 992.0625 411.238281 L 994.148438 402.515625 L 995.84375 395.425781 L 997.480469 388.558594 L 997.167969 388.230469 C 995.898438 386.996094 992.457031 384.894531 988.878906 386.378906 C 984.738281 388.09375 970.035156 394.015625 960.085938 397.652344 C 959.292969 397.945312 958.527344 398.222656 957.796875 398.480469 Z M 957.796875 398.480469 " fill-opacity="1" fill-rule="nonzero"/><path fill="#f0a58c" d="M 890.289062 242.414062 C 897.332031 246.199219 905.769531 247.988281 913.191406 247.148438 C 923.285156 246.011719 933.222656 235.097656 937.03125 225.890625 C 938.25 222.933594 938.84375 220.152344 938.601562 217.929688 C 938.410156 216.128906 938.292969 213.9375 938.25 211.496094 C 938.070312 201.507812 939.117188 187.308594 941.21875 178.460938 C 929.878906 164.941406 894.324219 170.503906 890.289062 172.027344 C 887.0625 173.25 884.582031 179.296875 883.746094 182.167969 L 886.800781 182.605469 C 884.65625 185.222656 880.386719 192.132812 880.476562 198.851562 C 884.378906 203.992188 885.496094 212.792969 883.964844 218.367188 C 882.511719 223.648438 880.160156 227.542969 877.015625 229.234375 L 877.09375 229.378906 C 879.652344 234.835938 884.496094 239.300781 890.289062 242.414062 Z M 921.152344 230.796875 C 920.28125 235.242188 917.300781 239.699219 915.917969 241.371094 C 915.613281 241.394531 915.289062 241.417969 914.9375 241.433594 C 910.078125 241.671875 901.011719 241.105469 896.941406 237.117188 C 894.261719 234.496094 893.175781 231.21875 892.84375 228.503906 C 892.632812 226.796875 892.726562 225.316406 892.90625 224.363281 C 899.679688 226.332031 913.699219 230.105469 919.734375 230.710938 C 920.277344 230.765625 920.75 230.796875 921.152344 230.796875 Z M 921.152344 230.796875 " fill-opacity="1" fill-rule="evenodd"/><path fill="#f0a58c" d="M 913.191406 247.148438 C 905.769531 247.988281 897.332031 246.199219 890.289062 242.414062 C 891.445312 248.269531 890.433594 252.75 889.089844 255.613281 C 888.40625 257.074219 887.632812 258.117188 887.015625 258.703125 C 897.050781 270.914062 912.644531 273.421875 915.917969 269.714844 C 916.398438 269.171875 915.480469 267.972656 913.191406 267.535156 C 912.714844 265.808594 912.164062 263.121094 911.867188 260.121094 C 911.4375 255.789062 911.542969 250.808594 913.191406 247.148438 Z M 913.191406 247.148438 " fill-opacity="1" fill-rule="nonzero"/><path fill="#8d4040" d="M 892.84375 228.503906 C 893.175781 231.21875 894.265625 234.496094 896.941406 237.117188 C 901.011719 241.105469 910.078125 241.671875 914.9375 241.433594 C 914.027344 239.996094 910.335938 236.015625 902.832031 231.605469 C 899.28125 230.785156 895.710938 229.75 892.84375 228.503906 Z M 892.84375 228.503906 " fill-opacity="1" fill-rule="nonzero"/><path fill="#2a1c1c" d="M 915.917969 241.371094 C 917.300781 239.699219 920.28125 235.242188 921.152344 230.796875 C 920.75 230.796875 920.277344 230.765625 919.734375 230.710938 L 915.917969 233.847656 C 913.097656 233.546875 907.988281 232.800781 902.832031 231.605469 C 910.335938 236.015625 914.027344 239.996094 914.9375 241.433594 C 915.285156 241.417969 915.613281 241.394531 915.917969 241.371094 Z M 915.917969 241.371094 " fill-opacity="1" fill-rule="nonzero"/><path fill="#ffffff" d="M 892.90625 224.363281 C 892.722656 225.316406 892.632812 226.796875 892.84375 228.503906 C 895.710938 229.75 899.28125 230.785156 902.832031 231.605469 C 907.988281 232.800781 913.097656 233.542969 915.917969 233.847656 L 919.734375 230.710938 C 913.699219 230.105469 899.679688 226.332031 892.90625 224.363281 Z M 892.90625 224.363281 " fill-opacity="1" fill-rule="nonzero"/><path fill="#8d4040" d="M 915.917969 269.71875 C 912.644531 273.425781 897.050781 270.917969 887.015625 258.707031 C 887.632812 258.117188 888.40625 257.074219 889.089844 255.613281 C 885.847656 256.503906 882.679688 257.46875 879.601562 258.492188 C 853.597656 267.128906 834.003906 279.816406 829.324219 286.835938 C 825.390625 292.738281 825.644531 309.980469 826.292969 319.980469 C 826.507812 323.28125 826.761719 325.792969 826.925781 326.847656 C 827.578125 331.101562 827.144531 339.714844 830.632812 355.414062 C 834.121094 371.113281 837.832031 412.109375 846.011719 414.945312 C 846.230469 409.78125 847.078125 397.71875 849.609375 392.046875 C 852.773438 384.960938 860.296875 377 889.417969 381.582031 C 903.667969 385.070312 932.648438 391.917969 934.566406 391.394531 C 936.96875 390.738281 940.785156 390.085938 942.636719 394.445312 C 945.179688 395.164062 949.285156 395.488281 952.890625 395.875 C 955.398438 391.96875 954.632812 386.488281 952.453125 384.414062 C 950.273438 382.34375 951.800781 378.636719 956.925781 374.601562 C 962.050781 370.570312 966.523438 367.515625 975.246094 366.207031 C 976.015625 366.09375 976.707031 365.984375 977.320312 365.886719 C 983.648438 364.863281 981.898438 364.589844 978.519531 362.5 C 974.8125 360.210938 978.519531 360.320312 978.519531 358.359375 C 978.519531 356.394531 976.773438 354.976562 975.246094 352.152344 C 974.046875 348.890625 959.324219 287.925781 953.324219 284.4375 C 948.542969 281.65625 934.191406 272.5625 921.261719 265.234375 C 917.976562 263.371094 914.785156 261.625 911.867188 260.125 C 912.164062 263.125 912.714844 265.8125 913.191406 267.539062 C 915.480469 267.972656 916.398438 269.171875 915.917969 269.71875 Z M 915.917969 269.71875 " fill-opacity="1" fill-rule="nonzero"/><path fill="#8d4040" d="M 830.632812 355.414062 C 827.144531 339.714844 827.578125 331.101562 826.925781 326.847656 C 826.761719 325.792969 826.507812 323.28125 826.292969 319.980469 C 825.011719 320.199219 824.519531 335.242188 824.960938 337.96875 C 827.144531 351.488281 826.597656 370.894531 828.453125 387.578125 C 830.304688 404.257812 825.507812 402.40625 830.632812 416.90625 L 852.742188 416.90625 C 849.957031 416.300781 847.652344 415.648438 846.011719 414.945312 C 837.832031 412.109375 834.121094 371.113281 830.632812 355.414062 Z M 830.632812 355.414062 " fill-opacity="1" fill-rule="nonzero"/><g clip-path="url(#409b988f40)"><path fill="#fad8b8" d="M 1199.910156 431.953125 C 1203.527344 431.953125 1206.457031 429.023438 1206.457031 425.410156 L 1206.457031 416.90625 L 1138.855469 416.90625 L 1137.753906 420.722656 L 1136.65625 424.539062 L 990.1875 427.046875 L 917.882812 425.738281 C 916.753906 425.617188 914.414062 424.820312 914.0625 422.613281 C 901.480469 422.238281 868.964844 420.421875 852.742188 416.90625 L 783.957031 416.90625 L 783.957031 425.410156 C 783.957031 429.023438 786.882812 431.953125 790.5 431.953125 Z M 1199.910156 431.953125 " fill-opacity="1" fill-rule="nonzero"/></g><path fill="#5f5555" d="M 849.609375 392.046875 C 847.078125 397.71875 846.230469 409.78125 846.011719 414.945312 C 847.652344 415.648438 849.957031 416.300781 852.742188 416.90625 C 868.964844 420.421875 901.484375 422.238281 914.0625 422.613281 C 915.699219 422.660156 917 422.683594 917.882812 422.683594 C 923.140625 422.683594 926.070312 421.757812 927.449219 420.941406 C 927.921875 420.660156 928.210938 420.390625 928.351562 420.175781 C 928.3125 413.269531 931.121094 398.457031 942.636719 394.445312 C 940.785156 390.085938 936.96875 390.738281 934.566406 391.394531 C 932.648438 391.917969 903.667969 385.070312 889.417969 381.582031 C 860.296875 377 852.773438 384.960938 849.609375 392.046875 Z M 849.609375 392.046875 " fill-opacity="1" fill-rule="nonzero"/><path fill="#5f5555" d="M 988.878906 386.378906 C 992.457031 384.894531 995.898438 386.996094 997.167969 388.230469 L 997.480469 388.558594 L 1000.816406 374.601562 C 995.445312 369.980469 988.078125 370.859375 985.0625 371.878906 C 984.371094 371.222656 981.855469 369.109375 977.320312 365.886719 C 976.707031 365.984375 976.015625 366.09375 975.246094 366.207031 C 966.523438 367.515625 962.050781 370.570312 956.925781 374.601562 C 951.800781 378.636719 950.273438 382.34375 952.453125 384.414062 C 954.632812 386.488281 955.398438 391.96875 952.890625 395.875 C 956.402344 396.257812 959.441406 396.707031 960.085938 397.652344 C 970.035156 394.015625 984.738281 388.09375 988.878906 386.378906 Z M 988.878906 386.378906 " fill-opacity="1" fill-rule="nonzero"/><path fill="#150d0e" d="M 901.414062 205.609375 C 902.917969 205.609375 904.140625 203.558594 904.140625 201.03125 C 904.140625 198.5 902.917969 196.449219 901.414062 196.449219 C 899.90625 196.449219 898.6875 198.5 898.6875 201.03125 C 898.6875 203.558594 899.90625 205.609375 901.414062 205.609375 Z M 901.414062 205.609375 " fill-opacity="1" fill-rule="nonzero"/><path fill="#150d0e" d="M 927.804688 206.480469 C 929.3125 206.480469 930.53125 204.433594 930.53125 201.902344 C 930.53125 199.371094 929.3125 197.324219 927.804688 197.324219 C 926.300781 197.324219 925.078125 199.371094 925.078125 201.902344 C 925.078125 204.433594 926.300781 206.480469 927.804688 206.480469 Z M 927.804688 206.480469 " fill-opacity="1" fill-rule="nonzero"/><path fill="#5f5555" d="M 942.636719 394.445312 C 931.121094 398.457031 928.3125 413.269531 928.351562 420.175781 C 928.210938 420.390625 927.921875 420.660156 927.449219 420.941406 L 955.058594 420.941406 C 952.023438 420.265625 949.742188 419.121094 948.964844 418.214844 C 947 415.925781 947.980469 401.96875 957.796875 398.480469 C 958.527344 398.222656 959.292969 397.945312 960.085938 397.652344 C 959.441406 396.707031 956.402344 396.257812 952.890625 395.875 C 949.285156 395.488281 945.179688 395.164062 942.636719 394.445312 Z M 942.636719 394.445312 " fill-opacity="1" fill-rule="nonzero"/><path fill="#8d4040" d="M 943.074219 169.519531 C 949.726562 157.527344 945.472656 149.132812 929.878906 144.226562 C 919.804688 141.058594 904.730469 141.617188 890.289062 145.527344 C 879.601562 153.601562 873.953125 171.628906 874.476562 194.878906 C 876.925781 195.328125 878.921875 196.796875 880.476562 198.851562 C 880.386719 192.132812 884.65625 185.222656 886.800781 182.605469 L 883.746094 182.167969 C 884.582031 179.296875 887.0625 173.25 890.289062 172.027344 C 894.324219 170.503906 929.878906 164.941406 941.21875 178.460938 C 939.117188 187.308594 938.070312 201.507812 938.25 211.496094 L 938.601562 210.296875 C 939.484375 206.867188 941.046875 202.433594 942.632812 197.757812 C 946.871094 185.261719 951.25 171.027344 943.074219 169.519531 Z M 943.074219 169.519531 " fill-opacity="1" fill-rule="nonzero"/><path fill="#8d4040" d="M 868.039062 154.910156 C 851.40625 165.21875 858.546875 185.589844 861.367188 195.90625 L 862.339844 199.941406 C 863.355469 198.660156 864.628906 197.578125 866.183594 196.777344 C 867.367188 196.097656 868.496094 195.601562 869.566406 195.269531 C 868.65625 186.976562 867.167969 163.089844 876.964844 150.222656 C 873.835938 151.613281 870.839844 153.179688 868.039062 154.910156 Z M 868.039062 154.910156 " fill-opacity="1" fill-rule="nonzero"/><path fill="#3e9f8e" d="M 938.25 211.496094 C 938.292969 213.9375 938.410156 216.128906 938.601562 217.929688 C 938.839844 220.152344 938.25 222.933594 937.03125 225.890625 C 944.183594 222.835938 946.019531 210.296875 942.632812 197.757812 C 941.046875 202.433594 939.484375 206.867188 938.601562 210.296875 Z M 938.25 211.496094 " fill-opacity="1" fill-rule="nonzero"/><path fill="#3e9f8e" d="M 866.1875 196.777344 C 864.628906 197.578125 863.355469 198.660156 862.34375 199.941406 C 856.042969 207.890625 859.71875 223.5625 866.949219 228.070312 C 867.851562 228.632812 868.726562 229.074219 869.566406 229.40625 C 874.476562 229.238281 879.710938 224.253906 878.945312 213.023438 C 878.183594 201.792969 872.511719 195.578125 866.1875 196.777344 Z M 867.496094 205.9375 C 862.34375 205.9375 863.023438 216.402344 867.496094 218.367188 C 871.96875 220.328125 872.648438 207.355469 867.496094 205.9375 Z M 867.496094 205.9375 " fill-opacity="1" fill-rule="evenodd"/><path fill="#3e9f8e" d="M 877.015625 229.234375 C 880.160156 227.542969 882.511719 223.648438 883.964844 218.367188 C 885.496094 212.792969 884.378906 203.992188 880.476562 198.851562 C 878.921875 196.796875 876.925781 195.332031 874.476562 194.878906 C 873.003906 194.609375 871.367188 194.707031 869.566406 195.265625 C 868.5 195.601562 867.371094 196.09375 866.1875 196.777344 C 872.511719 195.578125 878.183594 201.792969 878.945312 213.019531 C 879.710938 224.25 874.476562 229.234375 869.566406 229.40625 C 872.394531 230.519531 874.886719 230.378906 877.015625 229.234375 Z M 877.015625 229.234375 " fill-opacity="1" fill-rule="nonzero"/><path fill="#3e9f8e" d="M 874.476562 194.878906 C 873.953125 171.625 879.601562 153.601562 890.289062 145.527344 C 885.726562 146.761719 881.222656 148.332031 876.964844 150.222656 C 867.167969 163.089844 868.65625 186.976562 869.566406 195.269531 C 871.367188 194.707031 873.003906 194.609375 874.476562 194.878906 Z M 874.476562 194.878906 " fill-opacity="1" fill-rule="nonzero"/><path fill="#3e9f8e" d="M 867.496094 205.9375 C 862.34375 205.9375 863.023438 216.402344 867.496094 218.367188 C 871.96875 220.328125 872.648438 207.355469 867.496094 205.9375 Z M 867.496094 205.9375 " fill-opacity="1" fill-rule="nonzero"/><path fill="#2a1c1c" d="M 1137.753906 420.832031 L 1138.855469 417.015625 L 1168.039062 315.726562 L 1019.308594 315.726562 L 993.460938 421.042969 Z M 1137.753906 420.832031 " fill-opacity="1" fill-rule="nonzero"/><path fill="#2a1c1c" d="M 989.753906 420.941406 L 965.316406 420.941406 C 961.636719 421.804688 957.992188 421.59375 955.058594 420.941406 L 927.449219 420.941406 C 926.070312 421.757812 923.140625 422.683594 917.882812 422.683594 C 917 422.683594 915.699219 422.660156 914.0625 422.613281 C 914.414062 424.820312 916.753906 425.617188 917.882812 425.738281 L 990.1875 427.046875 L 1136.65625 424.539062 L 1137.753906 420.722656 L 993.460938 420.933594 Z M 989.753906 420.941406 " fill-opacity="1" fill-rule="nonzero"/><path fill="#5f5555" d="M 990.1875 419.085938 L 989.753906 420.941406 L 993.460938 420.933594 L 1019.308594 315.617188 L 1168.039062 315.617188 L 1162.722656 311.367188 L 1015.925781 311.367188 L 1000.816406 374.601562 L 997.480469 388.558594 L 995.84375 395.425781 L 994.148438 402.515625 L 992.0625 411.238281 Z M 990.1875 419.085938 " fill-opacity="1" fill-rule="nonzero"/><path fill="#2b1c1c" d="M 1207.546875 431.953125 L 1205.363281 431.953125 L 1205.363281 416.90625 L 1207.546875 416.90625 Z M 927.261719 420.183594 C 927.25 418.445312 927.433594 412.265625 930.15625 405.804688 C 932.597656 400.011719 936.371094 395.917969 941.109375 393.871094 C 939.605469 391.558594 937.230469 391.800781 934.855469 392.445312 C 934.320312 392.59375 933.320312 392.867188 916.378906 389.054688 C 904.953125 386.488281 892.746094 383.519531 889.203125 382.652344 C 877.984375 380.890625 869.0625 380.886719 862.679688 382.632812 L 862.105469 380.53125 C 868.425781 378.800781 877.03125 378.699219 887.703125 380.226562 C 885.296875 374.421875 880.542969 365.257812 873.933594 356.054688 C 873.132812 354.9375 872.328125 353.851562 871.535156 352.820312 C 868.390625 348.71875 865.082031 344.9375 861.707031 341.582031 L 863.246094 340.035156 C 865.601562 342.375 867.921875 344.917969 870.179688 347.628906 C 868.609375 340.925781 866.675781 331.722656 866.402344 326.917969 L 868.578125 326.792969 C 868.914062 332.675781 871.847656 345.507812 873.398438 351.671875 C 873.542969 351.859375 873.6875 352.046875 873.828125 352.238281 C 874.351562 339.6875 876.128906 332.292969 877.058594 330.035156 L 879.074219 330.867188 C 878.128906 333.160156 876.265625 341.152344 875.914062 355.082031 C 883.011719 365.023438 887.988281 374.914062 890.226562 380.664062 C 910.144531 385.53125 932.164062 390.53125 934.316406 390.335938 C 935.613281 389.984375 937.3125 389.632812 939.015625 389.976562 C 940.960938 390.367188 942.433594 391.5625 943.40625 393.527344 C 945.40625 394.015625 948.273438 394.3125 951.050781 394.59375 C 951.46875 394.636719 951.886719 394.679688 952.300781 394.722656 C 954.222656 391.136719 953.277344 386.714844 951.695312 385.210938 C 950.789062 384.347656 950.335938 383.230469 950.398438 381.972656 C 950.402344 381.835938 950.417969 381.695312 950.433594 381.554688 C 950.398438 381.679688 950.363281 381.800781 950.324219 381.917969 L 948.246094 381.257812 C 949.464844 377.421875 950.179688 369.457031 950.371094 357.582031 L 951.464844 357.597656 L 950.371094 357.582031 C 950.640625 341.140625 949.847656 321.410156 949.417969 310.808594 C 949.273438 307.171875 949.175781 304.765625 949.175781 303.847656 L 951.359375 303.847656 C 951.359375 304.722656 951.457031 307.238281 951.601562 310.722656 C 951.949219 319.335938 952.535156 333.964844 952.601562 347.988281 C 954.460938 343.027344 956.855469 340.523438 958.382812 339.730469 L 959.386719 341.667969 C 957.953125 342.410156 953.9375 346.738281 952.554688 357.679688 C 952.378906 368.226562 951.785156 375.785156 950.78125 380.210938 C 951.539062 378.195312 953.394531 375.996094 956.25 373.753906 C 961.402344 369.699219 966.058594 366.488281 975.082031 365.136719 C 975.847656 365.019531 976.535156 364.914062 977.144531 364.816406 L 977.488281 366.96875 C 976.875 367.066406 976.179688 367.175781 975.40625 367.292969 C 966.894531 368.566406 962.65625 371.484375 957.597656 375.464844 C 954.488281 377.910156 952.660156 380.320312 952.578125 382.074219 C 952.550781 382.695312 952.753906 383.203125 953.203125 383.628906 C 955.511719 385.824219 956.40625 390.828125 954.601562 394.980469 C 957.4375 395.332031 959.292969 395.722656 960.324219 396.410156 C 962.296875 395.683594 964.429688 394.878906 966.675781 394.019531 L 967.457031 396.054688 C 964.964844 397.011719 962.609375 397.894531 960.460938 398.683594 C 959.664062 398.976562 958.890625 399.253906 958.160156 399.515625 L 957.5 397.660156 C 956.417969 397.421875 954.835938 397.191406 952.769531 396.96875 C 952.136719 396.898438 951.484375 396.832031 950.832031 396.765625 C 947.886719 396.464844 944.851562 396.152344 942.679688 395.59375 C 938.074219 397.304688 934.535156 401.023438 932.164062 406.65625 C 930.125 411.484375 929.417969 416.808594 929.4375 420.175781 Z M 960.085938 397.652344 Z M 952.890625 395.875 L 952.882812 395.949219 Z M 934.289062 390.339844 C 934.285156 390.339844 934.285156 390.34375 934.28125 390.34375 C 934.285156 390.339844 934.285156 390.339844 934.289062 390.339844 Z M 889.417969 381.582031 Z M 852.511719 417.972656 C 849.566406 417.332031 847.246094 416.65625 845.613281 415.960938 C 839.496094 413.765625 836.167969 395.648438 832.453125 372.203125 C 831.441406 365.8125 830.488281 359.777344 829.570312 355.648438 C 827.046875 344.296875 826.5625 336.664062 826.242188 331.617188 C 826.121094 329.691406 826.023438 328.164062 825.847656 327.015625 C 825.695312 326.019531 825.433594 323.601562 825.203125 320.050781 L 827.378906 319.90625 C 827.59375 323.164062 827.84375 325.65625 828.003906 326.679688 C 828.195312 327.929688 828.292969 329.492188 828.417969 331.476562 C 828.734375 336.457031 829.210938 343.984375 831.699219 355.175781 C 832.628906 359.367188 833.589844 365.4375 834.605469 371.859375 C 836.035156 380.871094 837.652344 391.082031 839.648438 399.242188 C 842.382812 410.390625 844.8125 413.375 846.367188 413.914062 L 846.441406 413.941406 C 847.949219 414.589844 850.144531 415.226562 852.972656 415.839844 Z M 991.816406 412.296875 C 989.859375 411.84375 986.234375 410.253906 985.03125 407.171875 C 984.820312 406.949219 983.449219 406.460938 980.003906 407.785156 L 979.21875 405.75 C 982.824219 404.367188 984.777344 404.628906 985.78125 405.09375 C 986.410156 405.382812 986.867188 405.84375 987.066406 406.386719 C 987.972656 408.707031 991.15625 409.910156 992.3125 410.175781 Z M 985.042969 407.183594 Z M 993.351562 403.261719 C 992.347656 402.1875 989.585938 399.8125 987.539062 398.53125 L 988.695312 396.683594 C 990.8125 398.007812 993.6875 400.425781 994.945312 401.769531 Z M 994.785156 395.699219 C 994.714844 395.414062 994.242188 394.503906 993.066406 394.046875 L 993.855469 392.011719 C 995.816406 392.777344 996.691406 394.347656 996.898438 395.15625 Z M 966.660156 390.199219 L 965.730469 388.226562 C 970.242188 386.09375 975.46875 379.144531 977.597656 375.765625 L 979.445312 376.929688 C 979.175781 377.351562 972.871094 387.261719 966.660156 390.199219 Z M 919.445312 382.546875 C 918.574219 382.089844 898.082031 371.238281 895.46875 363.167969 L 897.542969 362.496094 C 899.28125 367.867188 912.203125 376.277344 920.460938 380.621094 Z M 955.40625 359.800781 L 953.429688 358.875 C 955.648438 354.152344 961.464844 352.90625 964.234375 352.90625 L 964.234375 355.085938 C 961.945312 355.085938 957.15625 356.074219 955.40625 359.800781 Z M 849.59375 329.804688 C 842.675781 326.664062 834.503906 324.8125 833.371094 327.300781 L 831.386719 326.394531 C 834.050781 320.558594 848.820312 327.058594 850.496094 327.816406 Z M 855.964844 324.433594 C 851.886719 317.089844 847.652344 310.480469 844.03125 305.824219 C 838.246094 298.378906 835.679688 297.921875 834.847656 298.074219 C 833.625 298.292969 833.109375 300.519531 832.914062 301.828125 L 830.753906 301.503906 C 831.257812 298.15625 832.507812 296.28125 834.460938 295.929688 C 837.203125 295.433594 840.898438 298.234375 845.757812 304.488281 C 849.441406 309.230469 853.742188 315.941406 857.871094 323.378906 Z M 892.863281 272.660156 C 889.507812 271.019531 882.210938 266.050781 878.628906 258.984375 L 880.574219 258 C 883.894531 264.550781 890.691406 269.171875 893.820312 270.699219 Z M 920.410156 272.4375 L 918.839844 270.925781 C 919.503906 270.238281 921.039062 267.945312 920.230469 265.589844 L 922.292969 264.882812 C 923.414062 268.148438 921.550781 271.253906 920.410156 272.4375 Z M 910.757812 272.386719 C 910.652344 272.386719 910.546875 272.386719 910.441406 272.382812 C 903.574219 272.261719 893.402344 268.199219 886.171875 259.398438 L 887.859375 258.015625 C 894.648438 266.277344 904.113281 270.089844 910.480469 270.203125 C 912.371094 270.234375 913.917969 269.90625 914.753906 269.304688 C 914.480469 269.089844 913.933594 268.789062 912.988281 268.609375 L 913.394531 266.46875 C 915.292969 266.828125 916.65625 267.703125 917.03125 268.808594 C 917.234375 269.394531 917.121094 270 916.734375 270.441406 C 915.609375 271.714844 913.546875 272.386719 910.757812 272.386719 Z M 909.457031 248.445312 C 902.886719 248.445312 895.898438 246.664062 889.773438 243.371094 L 890.804688 241.453125 C 897.667969 245.140625 905.988281 246.863281 913.070312 246.066406 L 913.3125 248.234375 C 912.054688 248.375 910.765625 248.445312 909.457031 248.445312 Z M 873.4375 229.472656 L 872.429688 227.539062 C 874.289062 226.566406 878.546875 223.214844 877.859375 213.09375 L 880.035156 212.945312 C 880.808594 224.351562 875.679688 228.300781 873.4375 229.472656 Z M 881.355469 226.742188 L 879.601562 225.449219 C 880.960938 223.601562 882.078125 221.121094 882.914062 218.074219 C 884.289062 213.058594 883.421875 204.53125 879.609375 199.507812 L 881.347656 198.1875 C 885.617188 203.820312 886.566406 213.015625 885.015625 218.652344 C 884.109375 221.960938 882.878906 224.679688 881.355469 226.742188 Z M 921.347656 220.84375 L 919.429688 219.8125 C 920.074219 218.613281 921.195312 217.847656 922.1875 217.167969 C 922.90625 216.679688 923.71875 216.121094 923.75 215.726562 C 923.757812 215.597656 923.707031 215.09375 922.585938 214.03125 C 919.203125 210.828125 918.359375 207.90625 918.667969 206.378906 L 920.804688 206.804688 C 920.695312 207.359375 921.058594 209.585938 924.085938 212.449219 C 925.425781 213.71875 926.011719 214.8125 925.925781 215.898438 C 925.8125 217.332031 924.597656 218.164062 923.421875 218.96875 C 922.59375 219.53125 921.742188 220.113281 921.347656 220.84375 Z M 912.117188 219.726562 L 911.429688 217.65625 C 911.714844 217.5625 914.257812 216.757812 915.851562 217.769531 L 914.679688 219.609375 C 914.222656 219.324219 912.988281 219.4375 912.117188 219.726562 Z M 868.382812 219.660156 C 867.949219 219.660156 867.503906 219.5625 867.058594 219.363281 C 863.699219 217.890625 862.21875 212.769531 862.992188 209.097656 C 863.550781 206.433594 865.234375 204.847656 867.496094 204.847656 L 867.644531 204.847656 L 867.785156 204.886719 C 869.804688 205.441406 871.3125 207.421875 871.917969 210.320312 C 872.550781 213.332031 872.160156 217.398438 870.1875 219 C 869.648438 219.4375 869.03125 219.660156 868.382812 219.660156 Z M 867.347656 207.03125 C 865.933594 207.117188 865.359375 208.433594 865.125 209.546875 C 864.554688 212.28125 865.679688 216.378906 867.933594 217.371094 C 868.367188 217.558594 868.597656 217.484375 868.8125 217.308594 C 869.757812 216.539062 870.390625 213.667969 869.785156 210.769531 C 869.585938 209.816406 868.953125 207.585938 867.347656 207.03125 Z M 934.785156 192.542969 C 934.742188 189.25 933.738281 186.984375 932.09375 186.484375 C 930.769531 186.082031 929.136719 186.941406 927.9375 188.675781 L 926.144531 187.4375 C 927.917969 184.867188 930.441406 183.703125 932.730469 184.398438 C 933.972656 184.777344 936.882812 186.328125 936.964844 192.511719 Z M 894.421875 191.984375 C 894.347656 191.984375 894.277344 191.984375 894.203125 191.980469 L 894.226562 189.800781 C 894.292969 189.800781 894.355469 189.800781 894.421875 189.800781 C 900.851562 189.800781 905.355469 185.839844 906.847656 183.722656 L 908.628906 184.976562 C 906.910156 187.414062 901.746094 191.984375 894.421875 191.984375 Z M 894.421875 191.984375 " fill-opacity="1" fill-rule="nonzero"/><path fill="#8d4040" d="M 1167.410156 340.804688 C 1171.121094 338.296875 1179.851562 331.820312 1185.128906 325.976562 C 1187.867188 343.039062 1205.070312 353.242188 1221.179688 350.011719 L 1222.566406 349.855469 C 1224.988281 350.796875 1227.71875 351.261719 1230.230469 350.816406 C 1230.667969 350.726562 1231.105469 350.652344 1231.539062 350.601562 C 1231.539062 335.242188 1224.777344 307.222656 1216.597656 304.605469 C 1210.925781 300.855469 1202.238281 303.042969 1198.601562 304.605469 C 1145.707031 292.070312 1117.351562 330.773438 1153.5625 364.246094 C 1145.816406 398.261719 1156.179688 405.566406 1160.867188 408.730469 C 1165.558594 411.890625 1165.925781 408.226562 1164.269531 405.097656 C 1171.65625 411.460938 1180.476562 411.144531 1184.425781 406.691406 C 1188.875 407.96875 1190.570312 406.347656 1190.207031 405.097656 C 1184.972656 403.589844 1179.605469 399.363281 1173.738281 390.738281 C 1163.722656 376.019531 1170.902344 364.027344 1167.410156 340.804688 Z M 1167.410156 340.804688 " fill-opacity="1" fill-rule="nonzero"/><path fill="#8d4040" d="M 1237.753906 380.554688 C 1236.691406 380.867188 1235.496094 381.035156 1234.15625 381.035156 C 1233.703125 381.035156 1233.269531 381.019531 1232.847656 380.992188 L 1232.816406 381.582031 C 1231.964844 389.027344 1226.078125 393.632812 1219.324219 396.445312 C 1218.390625 396.898438 1217.46875 397.363281 1216.5625 397.828125 C 1216.378906 398.90625 1216.195312 400.355469 1216.082031 401.96875 C 1217.898438 403.246094 1220.066406 403.695312 1222.269531 403.652344 L 1222.597656 404.257812 C 1225.867188 408.074219 1239.609375 413.199219 1249.316406 406.546875 C 1259.023438 399.898438 1258.039062 390.738281 1255.96875 384.414062 C 1253.894531 378.09375 1249.097656 370.351562 1256.621094 357.375 C 1264.148438 344.402344 1260.441406 320.851562 1232.273438 310.496094 C 1233.082031 312.242188 1233.652344 314.34375 1233.9375 316.816406 C 1234.984375 325.800781 1238.410156 343.203125 1236.011719 350.4375 C 1241.433594 350.910156 1245.199219 355.796875 1245.71875 363.046875 C 1246.191406 369.703125 1245.011719 378.429688 1237.753906 380.554688 Z M 1237.753906 380.554688 " fill-opacity="1" fill-rule="nonzero"/><path fill="#3e9f8e" d="M 1234.574219 350.402344 C 1234.773438 350.382812 1234.960938 350.378906 1235.136719 350.398438 C 1235.433594 350.398438 1235.726562 350.410156 1236.011719 350.4375 C 1238.410156 343.203125 1234.984375 325.800781 1233.9375 316.816406 C 1233.648438 314.34375 1233.082031 312.242188 1232.273438 310.496094 C 1229.417969 304.304688 1223.570312 302.566406 1216.597656 304.605469 C 1224.777344 307.222656 1231.539062 335.242188 1231.539062 350.601562 C 1232.589844 350.464844 1233.621094 350.414062 1234.574219 350.402344 Z M 1234.574219 350.402344 " fill-opacity="1" fill-rule="nonzero"/><path fill="#3e9f8e" d="M 1237.753906 380.554688 C 1245.011719 378.429688 1246.191406 369.703125 1245.71875 363.046875 C 1245.199219 355.796875 1241.433594 350.910156 1236.011719 350.4375 C 1235.726562 350.410156 1235.433594 350.398438 1235.136719 350.398438 C 1234.953125 350.398438 1234.765625 350.398438 1234.574219 350.402344 C 1232.433594 350.636719 1229.15625 353.34375 1228.15625 361.519531 C 1227.066406 370.460938 1229.792969 377.765625 1237.753906 380.554688 Z M 1237.753906 380.554688 " fill-opacity="1" fill-rule="nonzero"/><path fill="#3e9f8e" d="M 1234.15625 381.035156 C 1235.496094 381.035156 1236.691406 380.867188 1237.753906 380.554688 C 1229.792969 377.765625 1227.066406 370.460938 1228.15625 361.519531 C 1229.15625 353.34375 1232.433594 350.636719 1234.574219 350.402344 C 1233.621094 350.414062 1232.589844 350.464844 1231.539062 350.601562 C 1231.105469 350.652344 1230.667969 350.726562 1230.230469 350.816406 C 1225.78125 351.722656 1221.394531 354.539062 1221.394531 363.046875 C 1221.394531 372.125 1223.195312 379.238281 1230.882812 380.742188 C 1231.5 380.863281 1232.152344 380.945312 1232.847656 380.992188 C 1233.269531 381.019531 1233.703125 381.035156 1234.15625 381.035156 Z M 1234.15625 381.035156 " fill-opacity="1" fill-rule="nonzero"/><path fill="#f0a58c" d="M 1185.128906 325.976562 C 1179.851562 331.820312 1171.121094 338.296875 1167.410156 340.804688 C 1170.902344 364.027344 1163.722656 376.019531 1173.738281 390.738281 C 1179.605469 399.363281 1184.972656 403.589844 1190.207031 405.097656 C 1190.957031 405.3125 1191.703125 405.472656 1192.449219 405.582031 C 1200.277344 406.726562 1207.90625 402.238281 1216.5625 397.828125 C 1217.46875 397.363281 1218.390625 396.898438 1219.324219 396.445312 C 1213.320312 398.945312 1206.636719 400.03125 1202.203125 400.441406 C 1201.4375 401.96875 1196.289062 402.316406 1194.023438 401.96875 C 1193.019531 401.816406 1192.292969 400.683594 1192.449219 399.570312 C 1191.621094 399.308594 1190.878906 398.914062 1190.207031 398.421875 C 1186.851562 395.957031 1185.269531 390.980469 1184.425781 387.140625 C 1185.183594 387.140625 1185.949219 387.125 1186.714844 387.089844 C 1196.84375 386.625 1207.699219 383.304688 1212.125 381.582031 C 1212.039062 382.6875 1211.875 383.996094 1211.625 385.398438 C 1210.972656 389.003906 1209.734375 393.261719 1207.679688 396.519531 L 1207.4375 396.921875 C 1217.335938 394.910156 1230.453125 390.042969 1230.882812 381.035156 L 1230.882812 380.742188 C 1223.195312 379.238281 1221.394531 372.125 1221.394531 363.046875 C 1221.394531 354.539062 1225.78125 351.722656 1230.230469 350.816406 C 1227.71875 351.261719 1224.988281 350.796875 1222.566406 349.855469 L 1221.179688 350.011719 C 1205.070312 353.242188 1187.867188 343.039062 1185.128906 325.976562 Z M 1185.128906 325.976562 " fill-opacity="1" fill-rule="nonzero"/><path fill="#f0a58c" d="M 1194.023438 424.539062 C 1189.003906 434.132812 1198.308594 436.640625 1207.4375 427.808594 C 1214.738281 420.742188 1217.53125 416.144531 1218.015625 414.726562 C 1217.238281 413.628906 1216.722656 412.140625 1216.410156 410.472656 C 1215.898438 407.789062 1215.894531 404.652344 1216.082031 401.96875 C 1216.195312 400.355469 1216.378906 398.90625 1216.5625 397.828125 C 1207.90625 402.238281 1200.277344 406.726562 1192.449219 405.582031 C 1194.113281 408.066406 1195.09375 412.015625 1195.398438 415.707031 C 1195.71875 419.652344 1195.261719 423.300781 1194.023438 424.539062 Z M 1194.023438 424.539062 " fill-opacity="1" fill-rule="nonzero"/><path fill="#8d4040" d="M 1207.679688 396.519531 C 1209.734375 393.261719 1210.976562 389.003906 1211.625 385.398438 C 1210.070312 385.90625 1208.140625 386.515625 1206.066406 387.140625 C 1200.921875 389.359375 1190.554688 394.71875 1190.207031 398.421875 C 1190.878906 398.914062 1191.621094 399.308594 1192.449219 399.570312 C 1192.515625 399.105469 1192.734375 398.644531 1193.148438 398.261719 C 1194.566406 396.953125 1201.003906 396.585938 1201.765625 397.828125 C 1203.414062 397.644531 1205.355469 397.347656 1207.4375 396.921875 Z M 1207.679688 396.519531 " fill-opacity="1" fill-rule="nonzero"/><path fill="#eaeaea" d="M 1212.125 381.582031 C 1207.699219 383.304688 1196.84375 386.625 1186.714844 387.089844 C 1186.714844 387.871094 1187.171875 389.691406 1189.003906 390.738281 C 1190.417969 391.546875 1199.070312 389.25 1206.066406 387.140625 C 1208.140625 386.515625 1210.070312 385.90625 1211.625 385.398438 C 1211.875 383.996094 1212.039062 382.6875 1212.125 381.582031 Z M 1212.125 381.582031 " fill-opacity="1" fill-rule="nonzero"/><path fill="#2a1c1c" d="M 1186.714844 387.089844 C 1185.949219 387.125 1185.183594 387.140625 1184.425781 387.140625 C 1185.269531 390.980469 1186.851562 395.957031 1190.207031 398.421875 C 1190.554688 394.71875 1200.921875 389.359375 1206.066406 387.140625 C 1199.070312 389.25 1190.417969 391.546875 1189.003906 390.738281 C 1187.171875 389.691406 1186.714844 387.871094 1186.714844 387.089844 Z M 1186.714844 387.089844 " fill-opacity="1" fill-rule="nonzero"/><path fill="#3e9f8e" d="M 1194.023438 401.96875 C 1196.289062 402.316406 1201.4375 401.96875 1202.203125 400.441406 C 1206.636719 400.03125 1213.320312 398.945312 1219.324219 396.445312 C 1226.078125 393.632812 1231.964844 389.027344 1232.816406 381.582031 L 1232.847656 380.992188 C 1232.152344 380.945312 1231.5 380.863281 1230.882812 380.742188 L 1230.882812 381.035156 C 1230.453125 390.042969 1217.335938 394.910156 1207.4375 396.921875 C 1205.355469 397.347656 1203.414062 397.644531 1201.765625 397.828125 C 1201.003906 396.585938 1194.566406 396.953125 1193.148438 398.261719 C 1192.734375 398.644531 1192.515625 399.105469 1192.449219 399.570312 C 1192.292969 400.683594 1193.019531 401.816406 1194.023438 401.96875 Z M 1194.023438 401.96875 " fill-opacity="1" fill-rule="nonzero"/><path fill="#3e9f8e" d="M 1207.4375 427.808594 C 1198.308594 436.640625 1189.003906 434.132812 1194.023438 424.539062 C 1195.261719 423.300781 1195.71875 419.652344 1195.398438 415.707031 C 1194.707031 416 1194.011719 416.292969 1193.320312 416.578125 C 1177.039062 423.371094 1160.855469 429 1152.90625 441.65625 C 1144.617188 454.847656 1116.261719 508.382812 1115.609375 509.363281 C 1114.953125 510.34375 1110.046875 507.074219 1109.9375 513.179688 C 1109.828125 519.285156 1105.636719 514.59375 1103.261719 518.628906 L 1109.480469 543.925781 C 1110.25 543.378906 1112.421875 542.3125 1114.953125 542.398438 C 1116.488281 542.449219 1122.503906 545.078125 1129.171875 548.175781 C 1134.472656 544.722656 1145.859375 535.289062 1149.023438 525.171875 C 1152.574219 533.835938 1157.800781 542.484375 1160.648438 546.648438 L 1161.808594 548.175781 C 1161.234375 549.242188 1160.820312 550.214844 1160.648438 550.683594 L 1160.597656 550.855469 C 1161.390625 550.59375 1162.117188 550.347656 1162.722656 550.140625 C 1170.355469 556.246094 1177.007812 563.03125 1172.210938 577.519531 L 1194.785156 577.070312 L 1194.785156 579.683594 C 1212.453125 579.320312 1249.292969 578.289062 1255.3125 577.070312 C 1257.691406 576.710938 1259.660156 575.390625 1261.316406 573.363281 C 1268.789062 564.222656 1269.988281 540.714844 1274.179688 526.261719 C 1276.597656 517.9375 1277.851562 511.671875 1277.757812 505.328125 C 1281.332031 502.058594 1281.269531 494.207031 1279.199219 478.726562 C 1276.035156 463.460938 1272.65625 448.742188 1265.566406 443.835938 C 1259.894531 439.910156 1235.71875 423.449219 1224.339844 415.707031 C 1223.648438 413.925781 1221.097656 410.386719 1216.410156 410.472656 C 1216.722656 412.140625 1217.238281 413.628906 1218.015625 414.726562 C 1217.53125 416.144531 1214.738281 420.742188 1207.4375 427.808594 Z M 1207.4375 427.808594 " fill-opacity="1" fill-rule="nonzero"/><path fill="#3e9f8e" d="M 1160.597656 550.855469 C 1157.085938 552.019531 1152.261719 553.519531 1151.050781 553.519531 C 1149.246094 553.519531 1146.714844 552.898438 1145.070312 555.589844 L 1144.996094 555.699219 C 1146.136719 556.246094 1147.15625 556.722656 1148 557.117188 C 1155.085938 558.425781 1158.90625 570.746094 1151.050781 577.9375 L 1172.210938 577.519531 C 1177.007812 563.03125 1170.355469 556.246094 1162.722656 550.140625 C 1162.117188 550.347656 1161.390625 550.59375 1160.597656 550.855469 Z M 1160.597656 550.855469 " fill-opacity="1" fill-rule="nonzero"/><path fill="#2a1c1c" d="M 953.433594 576.195312 L 1116.152344 584.265625 L 1087.351562 476.597656 C 1086.585938 473.738281 1083.992188 471.746094 1081.027344 471.746094 L 931.710938 471.746094 C 928.855469 471.746094 926.765625 474.449219 927.492188 477.214844 L 952.863281 574.015625 Z M 953.433594 576.195312 " fill-opacity="1" fill-rule="nonzero"/><path fill="#fad8b8" d="M 1194.785156 582.300781 L 1116.152344 584.265625 L 953.433594 576.195312 L 952.863281 574.015625 L 861.605469 574.015625 L 861.605469 581.320312 C 861.605469 586.136719 865.511719 590.042969 870.332031 590.042969 L 1307.773438 590.042969 C 1312.589844 590.042969 1316.496094 586.136719 1316.496094 581.320312 L 1316.496094 573.363281 L 1261.316406 573.363281 C 1259.660156 575.390625 1257.691406 576.710938 1255.3125 577.070312 C 1249.292969 578.289062 1212.453125 579.320312 1194.785156 579.683594 Z M 1194.785156 582.300781 " fill-opacity="1" fill-rule="nonzero"/><path fill="#5f5555" d="M 1116.152344 584.265625 L 1194.785156 582.300781 L 1194.785156 577.070312 L 1172.210938 577.519531 L 1151.050781 577.9375 L 1118.007812 578.59375 L 1115.835938 569.765625 L 1113.421875 559.953125 L 1109.480469 543.925781 L 1103.261719 518.628906 L 1091.761719 471.878906 C 1091.035156 468.929688 1088.375 466.863281 1085.332031 466.898438 L 931.308594 468.675781 C 930.3125 468.6875 929.351562 469.039062 928.585938 469.671875 C 927.734375 470.371094 928.230469 471.746094 929.332031 471.746094 L 1081.03125 471.746094 C 1083.992188 471.746094 1086.585938 473.738281 1087.351562 476.597656 Z M 1116.152344 584.265625 " fill-opacity="1" fill-rule="nonzero"/><path fill="#f0a58c" d="M 1118.007812 578.59375 L 1151.050781 577.9375 C 1158.90625 570.746094 1155.085938 558.425781 1148 557.117188 C 1147.15625 556.722656 1146.136719 556.246094 1144.996094 555.699219 C 1140.75 553.675781 1134.734375 550.761719 1129.171875 548.175781 C 1122.503906 545.078125 1116.488281 542.449219 1114.953125 542.398438 C 1112.421875 542.3125 1110.25 543.378906 1109.480469 543.925781 L 1113.421875 559.953125 L 1115.835938 569.765625 Z M 1118.007812 578.59375 " fill-opacity="1" fill-rule="nonzero"/><path fill="#2b1c1c" d="M 1207.4375 427.808594 L 1208.195312 428.59375 Z M 1162.722656 546.648438 L 1163.617188 547.269531 L 1163.625 547.261719 L 1163.628906 547.253906 Z M 1145.925781 515.578125 L 1146.992188 515.351562 Z M 1113.011719 518.628906 L 1112.699219 519.675781 Z M 1154.59375 474.363281 L 1155.605469 474.765625 Z M 1236.011719 371.222656 L 1235.496094 372.183594 Z M 1183.789062 372.265625 L 1184.496094 373.097656 Z M 1183.445312 375.332031 L 1182.648438 376.078125 Z M 1183.660156 320.839844 C 1183.640625 322.671875 1183.777344 324.441406 1184.050781 326.148438 L 1186.203125 325.804688 C 1185.949219 324.21875 1185.824219 322.570312 1185.84375 320.863281 Z M 1184.316406 325.246094 C 1179.136719 330.988281 1170.488281 337.40625 1166.800781 339.902344 L 1168.023438 341.707031 C 1171.75 339.1875 1180.574219 332.652344 1185.9375 326.707031 Z M 1230.011719 349.746094 C 1227.648438 350.230469 1225.1875 351.242188 1223.324219 353.359375 C 1221.457031 355.492188 1220.304688 358.601562 1220.304688 363.046875 L 1222.488281 363.046875 C 1222.488281 358.980469 1223.53125 356.433594 1224.964844 354.800781 C 1226.40625 353.15625 1228.363281 352.308594 1230.449219 351.882812 Z M 1214.308594 343.203125 C 1214.308594 344.792969 1215.386719 346.339844 1216.742188 347.589844 C 1218.148438 348.878906 1220.0625 350.050781 1222.167969 350.871094 L 1222.960938 348.835938 C 1221.070312 348.101562 1219.402344 347.070312 1218.21875 345.984375 C 1216.992188 344.855469 1216.488281 343.851562 1216.488281 343.203125 Z M 1246.804688 362.96875 C 1246.265625 355.433594 1242.277344 349.886719 1236.105469 349.351562 L 1235.917969 351.523438 C 1240.589844 351.929688 1244.132812 356.164062 1244.628906 363.125 Z M 1220.304688 363.046875 C 1220.304688 367.625 1220.753906 371.867188 1222.265625 375.183594 C 1223.808594 378.582031 1226.457031 380.988281 1230.675781 381.8125 L 1231.09375 379.671875 C 1227.621094 378.992188 1225.523438 377.085938 1224.25 374.28125 C 1222.9375 371.402344 1222.488281 367.546875 1222.488281 363.046875 Z M 1193.054688 424.03125 C 1191.742188 426.542969 1191.265625 428.769531 1191.652344 430.566406 C 1192.054688 432.453125 1193.367188 433.6875 1195.15625 434.140625 C 1196.882812 434.578125 1198.992188 434.292969 1201.199219 433.378906 C 1203.425781 432.460938 1205.832031 430.878906 1208.195312 428.59375 L 1206.675781 427.027344 C 1204.480469 429.15625 1202.300781 430.570312 1200.371094 431.367188 C 1198.425781 432.167969 1196.8125 432.308594 1195.695312 432.027344 C 1194.644531 431.761719 1194 431.121094 1193.785156 430.113281 C 1193.550781 429.015625 1193.792969 427.332031 1194.988281 425.042969 Z M 1208.195312 428.59375 C 1211.878906 425.027344 1214.441406 422.070312 1216.152344 419.804688 C 1217.839844 417.574219 1218.746094 415.957031 1219.046875 415.078125 L 1216.984375 414.371094 C 1216.796875 414.910156 1216.066406 416.304688 1214.414062 418.492188 C 1212.777344 420.648438 1210.292969 423.527344 1206.675781 427.027344 Z M 1271.085938 481.0625 C 1274.820312 491.339844 1276.566406 498.414062 1276.667969 505.34375 L 1278.847656 505.3125 C 1278.742188 498.015625 1276.894531 490.671875 1273.132812 480.316406 Z M 1170.792969 545.558594 C 1168.476562 545.558594 1166.9375 545.105469 1165.617188 544.84375 C 1164.996094 544.71875 1164.292969 544.613281 1163.617188 544.753906 C 1162.863281 544.917969 1162.273438 545.359375 1161.816406 546.046875 L 1163.628906 547.253906 C 1163.824219 546.960938 1163.960938 546.910156 1164.070312 546.886719 C 1164.265625 546.847656 1164.582031 546.863281 1165.195312 546.984375 C 1166.359375 547.214844 1168.199219 547.738281 1170.792969 547.738281 Z M 1162.042969 550.988281 C 1165.847656 554.035156 1169.242188 557.125 1171.140625 561.152344 C 1173.015625 565.121094 1173.503906 570.140625 1171.175781 577.175781 L 1173.246094 577.859375 C 1175.714844 570.40625 1175.273438 564.792969 1173.117188 560.21875 C 1170.980469 555.703125 1167.230469 552.347656 1163.402344 549.289062 Z M 1151.789062 578.742188 C 1156.035156 574.851562 1157.121094 569.566406 1156.195312 565.101562 C 1155.28125 560.691406 1152.328125 556.808594 1148.195312 556.042969 L 1147.800781 558.1875 C 1150.761719 558.734375 1153.257812 561.664062 1154.058594 565.542969 C 1154.851562 569.359375 1153.921875 573.832031 1150.316406 577.132812 Z M 1113.421875 561.042969 L 1119.535156 561.042969 L 1119.535156 558.859375 L 1113.421875 558.859375 Z M 1125.828125 566.386719 C 1123.777344 566.246094 1121.597656 566.628906 1119.746094 567.144531 C 1117.890625 567.65625 1116.28125 568.320312 1115.347656 568.789062 L 1116.324219 570.738281 C 1117.128906 570.335938 1118.605469 569.722656 1120.332031 569.246094 C 1122.0625 568.765625 1123.96875 568.441406 1125.675781 568.5625 Z M 1144.859375 515.804688 C 1145.523438 518.929688 1146.652344 522.269531 1148.011719 525.585938 L 1150.03125 524.757812 C 1148.699219 521.519531 1147.621094 518.304688 1146.992188 515.351562 Z M 1109.878906 519.171875 C 1110.835938 519.226562 1111.777344 519.398438 1112.699219 519.675781 L 1113.324219 517.585938 C 1112.253906 517.265625 1111.140625 517.058594 1109.996094 516.996094 Z M 1112.699219 519.675781 C 1116.609375 520.839844 1120.105469 523.820312 1122.835938 526.933594 C 1125.550781 530.03125 1127.40625 533.144531 1128.054688 534.394531 L 1129.992188 533.390625 C 1129.273438 532.011719 1127.324219 528.746094 1124.472656 525.496094 C 1121.640625 522.261719 1117.8125 518.925781 1113.324219 517.585938 Z M 1113.28125 519.683594 C 1117.085938 518.710938 1121.15625 519.359375 1124.757812 520.632812 C 1128.355469 521.902344 1131.382812 523.753906 1133.039062 525.050781 L 1134.382812 523.332031 C 1132.550781 521.902344 1129.320312 519.925781 1125.484375 518.574219 C 1121.65625 517.222656 1117.121094 516.453125 1112.742188 517.574219 Z M 1121.230469 511.96875 C 1122.867188 511.128906 1125.386719 510.800781 1128.011719 510.78125 C 1130.59375 510.765625 1133.109375 511.046875 1134.613281 511.308594 L 1134.988281 509.160156 C 1133.371094 508.878906 1130.726562 508.582031 1127.996094 508.601562 C 1125.304688 508.621094 1122.351562 508.945312 1120.238281 510.027344 Z M 1160.082031 458.242188 C 1157.792969 463.675781 1155.585938 468.929688 1153.582031 473.960938 L 1155.605469 474.765625 C 1157.601562 469.761719 1159.804688 464.527344 1162.089844 459.085938 Z M 1153.582031 473.960938 C 1150.285156 482.230469 1147.53125 489.9375 1145.886719 496.929688 C 1144.242188 503.914062 1143.683594 510.269531 1144.859375 515.804688 L 1146.992188 515.351562 C 1145.910156 510.265625 1146.398438 504.269531 1148.007812 497.429688 C 1149.617188 490.597656 1152.324219 483.011719 1155.605469 474.765625 Z M 1154.324219 456.507812 C 1154.5 464.734375 1153.851562 471.761719 1153.511719 474.214844 L 1155.675781 474.511719 C 1156.027344 471.949219 1156.679688 464.804688 1156.503906 456.460938 Z M 1226.449219 536.402344 C 1225.117188 536.359375 1223.609375 536.40625 1221.96875 536.527344 L 1222.132812 538.703125 C 1223.71875 538.585938 1225.144531 538.542969 1226.378906 538.582031 Z M 1221.96875 536.527344 C 1214.054688 537.109375 1202.75 539.382812 1192.699219 541.496094 C 1187.65625 542.554688 1182.929688 543.574219 1179.0625 544.328125 C 1175.152344 545.09375 1172.246094 545.558594 1170.792969 545.558594 L 1170.792969 547.738281 C 1172.503906 547.738281 1175.628906 547.222656 1179.480469 546.46875 C 1183.371094 545.710938 1188.125 544.683594 1193.148438 543.628906 C 1203.234375 541.511719 1214.390625 539.269531 1222.132812 538.703125 Z M 1256.789062 475.597656 C 1250.121094 477.308594 1242.617188 483.542969 1236.089844 493.855469 C 1229.539062 504.203125 1223.882812 518.78125 1220.972656 537.449219 L 1223.128906 537.785156 C 1226 519.363281 1231.566406 505.078125 1237.933594 495.019531 C 1244.324219 484.929688 1251.433594 479.226562 1257.328125 477.710938 Z M 1249.46875 462.316406 C 1238.585938 475.054688 1232.789062 491.746094 1231.238281 498.542969 L 1233.363281 499.027344 C 1234.867188 492.453125 1240.546875 476.117188 1251.125 463.734375 Z M 1225.722656 534.546875 C 1234.238281 519.824219 1246.714844 516.757812 1251.664062 516.992188 L 1251.765625 514.816406 C 1246.027344 514.542969 1232.765625 518.003906 1223.832031 533.457031 Z M 1242.804688 535.992188 C 1241.015625 534.535156 1238.671875 532.9375 1235.800781 532.324219 C 1232.882812 531.699219 1229.539062 532.121094 1225.824219 534.503906 L 1227.003906 536.339844 C 1230.265625 534.246094 1233.03125 533.960938 1235.347656 534.457031 C 1237.710938 534.960938 1239.730469 536.304688 1241.429688 537.683594 Z M 1172.210938 477.742188 C 1190.925781 477.742188 1203.792969 472.761719 1208.007812 470.167969 L 1206.863281 468.3125 C 1203.050781 470.660156 1190.59375 475.5625 1172.210938 475.5625 Z M 1172.523438 528.832031 C 1182.820312 535.011719 1195.328125 535.574219 1200.34375 535.089844 L 1200.132812 532.917969 C 1195.40625 533.375 1183.410156 532.820312 1173.644531 526.960938 Z M 1153.636719 530.246094 C 1157.898438 536.640625 1162.605469 540.710938 1164.511719 541.996094 L 1165.730469 540.183594 C 1164.074219 539.070312 1159.5625 535.203125 1155.449219 529.039062 Z M 1160.011719 402.210938 C 1161.132812 403.625 1162.324219 404.863281 1163.558594 405.925781 L 1164.980469 404.273438 C 1163.855469 403.304688 1162.761719 402.171875 1161.722656 400.855469 Z M 1222.289062 404.742188 C 1226.664062 404.65625 1231.082031 402.761719 1233.40625 401.378906 L 1232.289062 399.503906 C 1230.160156 400.777344 1226.113281 402.484375 1222.246094 402.558594 Z M 1235.699219 357.421875 C 1232.519531 358.367188 1231.078125 361.4375 1231.078125 364.394531 C 1231.078125 367.363281 1232.503906 370.59375 1235.496094 372.183594 L 1236.523438 370.261719 C 1234.390625 369.128906 1233.257812 366.742188 1233.257812 364.394531 C 1233.257812 362.035156 1234.375 360.089844 1236.324219 359.511719 Z M 1242.394531 366.753906 C 1243.171875 364.292969 1242.730469 361.515625 1241.441406 359.144531 L 1239.523438 360.1875 C 1240.585938 362.144531 1240.878906 364.308594 1240.3125 366.097656 Z M 1235.496094 372.183594 C 1236.980469 372.972656 1238.429688 372.515625 1239.433594 371.847656 C 1240.414062 371.195312 1241.1875 370.21875 1241.492188 369.449219 L 1239.46875 368.636719 C 1239.339844 368.957031 1238.875 369.597656 1238.226562 370.03125 C 1237.601562 370.445312 1237.035156 370.535156 1236.523438 370.261719 Z M 1187.914062 364.355469 C 1187.914062 365.410156 1187.359375 366.660156 1186.402344 367.972656 C 1185.460938 369.257812 1184.222656 370.472656 1183.085938 371.433594 L 1184.496094 373.097656 C 1185.714844 372.070312 1187.085938 370.730469 1188.160156 369.257812 C 1189.222656 367.8125 1190.097656 366.101562 1190.097656 364.355469 Z M 1182.648438 376.078125 C 1183.636719 377.132812 1184.910156 378.28125 1186.332031 379.128906 C 1187.734375 379.96875 1189.394531 380.582031 1191.101562 380.371094 L 1190.835938 378.210938 C 1189.808594 378.335938 1188.648438 377.976562 1187.449219 377.257812 C 1186.261719 376.546875 1185.140625 375.550781 1184.242188 374.589844 Z M 1176.023438 346.789062 C 1176.136719 345.492188 1176.535156 344.65625 1177.027344 344.105469 C 1177.523438 343.546875 1178.191406 343.195312 1178.984375 343.007812 C 1180.613281 342.621094 1182.597656 342.976562 1183.945312 343.464844 L 1184.6875 341.414062 C 1183.128906 340.847656 1180.683594 340.363281 1178.480469 340.886719 C 1177.359375 341.152344 1176.257812 341.691406 1175.398438 342.652344 C 1174.539062 343.617188 1174 344.925781 1173.851562 346.597656 Z M 1183.085938 371.433594 C 1181.796875 372.519531 1181.289062 374.621094 1182.648438 376.078125 L 1184.242188 374.589844 C 1183.933594 374.261719 1183.917969 373.585938 1184.496094 373.097656 Z M 1194.011719 376.90625 C 1194.203125 376.660156 1194.570312 376.371094 1194.988281 376.292969 C 1195.328125 376.226562 1195.886719 376.265625 1196.632812 377.011719 L 1198.175781 375.46875 C 1197 374.292969 1195.738281 373.933594 1194.585938 374.148438 C 1193.515625 374.347656 1192.714844 375.019531 1192.285156 375.570312 Z M 1223.371094 415.910156 L 1220.316406 419.835938 L 1222.039062 421.171875 L 1225.09375 417.25 Z M 1194.660156 406.851562 C 1201.332031 406.957031 1207.882812 403.53125 1214.699219 400.011719 L 1213.695312 398.074219 C 1206.730469 401.671875 1200.707031 404.765625 1194.695312 404.671875 Z M 1184.054688 326.175781 C 1186.3125 338.183594 1195.101562 347.910156 1208.75 350.597656 L 1209.175781 348.457031 C 1196.417969 345.949219 1188.292969 336.921875 1186.199219 325.777344 Z M 1161.824219 546.027344 L 1160.84375 547.445312 L 1162.636719 548.6875 L 1163.617188 547.269531 Z M 1161.824219 546.027344 " fill-opacity="1" fill-rule="nonzero"/><path fill="#2a1c1c" d="M 1206.5625 359.777344 C 1207.949219 359.777344 1209.074219 358.117188 1209.074219 356.070312 C 1209.074219 354.019531 1207.949219 352.363281 1206.5625 352.363281 C 1205.179688 352.363281 1204.054688 354.019531 1204.054688 356.070312 C 1204.054688 358.117188 1205.179688 359.777344 1206.5625 359.777344 Z M 1206.5625 359.777344 " fill-opacity="1" fill-rule="nonzero"/><path fill="#2a1c1c" d="M 1180.171875 360.429688 C 1181.554688 360.429688 1182.679688 358.769531 1182.679688 356.722656 C 1182.679688 354.675781 1181.554688 353.015625 1180.171875 353.015625 C 1178.785156 353.015625 1177.664062 354.675781 1177.664062 356.722656 C 1177.664062 358.769531 1178.785156 360.429688 1180.171875 360.429688 Z M 1180.171875 360.429688 " fill-opacity="1" fill-rule="nonzero"/><path fill="#2b1c1c" d="M 996.828125 386.5625 L 999.75 374.351562 L 1001.871094 374.855469 L 998.949219 387.070312 Z M 996.828125 386.5625 " fill-opacity="1" fill-rule="nonzero"/><path fill="#2a1c1c" d="M 939.589844 578.121094 C 939.589844 578.421875 939.5 578.71875 939.320312 579.011719 C 939.140625 579.304688 938.875 579.589844 938.519531 579.863281 C 938.167969 580.140625 937.734375 580.402344 937.222656 580.652344 C 936.710938 580.902344 936.125 581.132812 935.472656 581.34375 C 934.820312 581.554688 934.113281 581.742188 933.34375 581.910156 C 932.578125 582.074219 931.765625 582.214844 930.914062 582.332031 C 930.0625 582.445312 929.183594 582.53125 928.277344 582.589844 C 927.371094 582.648438 926.457031 582.675781 925.535156 582.675781 C 924.613281 582.675781 923.699219 582.648438 922.792969 582.589844 C 921.886719 582.53125 921.007812 582.445312 920.15625 582.332031 C 919.304688 582.214844 918.492188 582.074219 917.726562 581.910156 C 916.957031 581.742188 916.25 581.554688 915.597656 581.34375 C 914.945312 581.132812 914.359375 580.902344 913.847656 580.652344 C 913.335938 580.402344 912.902344 580.140625 912.550781 579.863281 C 912.195312 579.589844 911.929688 579.304688 911.75 579.011719 C 911.570312 578.71875 911.480469 578.421875 911.480469 578.121094 C 911.480469 577.824219 911.570312 577.527344 911.75 577.234375 C 911.929688 576.941406 912.195312 576.65625 912.550781 576.378906 C 912.902344 576.101562 913.335938 575.839844 913.847656 575.589844 C 914.359375 575.34375 914.945312 575.113281 915.597656 574.902344 C 916.25 574.691406 916.957031 574.5 917.726562 574.335938 C 918.492188 574.167969 919.304688 574.027344 920.15625 573.914062 C 921.007812 573.800781 921.886719 573.710938 922.792969 573.65625 C 923.699219 573.597656 924.613281 573.566406 925.535156 573.566406 C 926.457031 573.566406 927.371094 573.597656 928.277344 573.65625 C 929.183594 573.710938 930.0625 573.800781 930.914062 573.914062 C 931.765625 574.027344 932.578125 574.167969 933.34375 574.335938 C 934.113281 574.5 934.820312 574.691406 935.472656 574.902344 C 936.125 575.113281 936.710938 575.34375 937.222656 575.589844 C 937.734375 575.839844 938.167969 576.101562 938.519531 576.378906 C 938.875 576.65625 939.140625 576.941406 939.320312 577.234375 C 939.5 577.527344 939.589844 577.824219 939.589844 578.121094 Z M 939.589844 578.121094 " fill-opacity="1" fill-rule="nonzero"/><path fill="#f6f6f6" d="M 943.144531 552.71875 C 943.144531 552.851562 943.03125 552.984375 942.804688 553.113281 C 942.578125 553.242188 942.242188 553.367188 941.796875 553.488281 C 941.351562 553.609375 940.808594 553.726562 940.164062 553.835938 C 939.519531 553.945312 938.785156 554.046875 937.964844 554.140625 C 937.144531 554.234375 936.25 554.316406 935.285156 554.390625 C 934.320312 554.464844 933.300781 554.527344 932.226562 554.574219 C 931.152344 554.625 930.046875 554.664062 928.910156 554.691406 C 927.769531 554.714844 926.621094 554.730469 925.457031 554.730469 C 924.296875 554.730469 923.148438 554.714844 922.007812 554.691406 C 920.871094 554.664062 919.765625 554.625 918.691406 554.574219 C 917.617188 554.527344 916.597656 554.464844 915.632812 554.390625 C 914.667969 554.316406 913.773438 554.234375 912.953125 554.140625 C 912.132812 554.046875 911.398438 553.945312 910.753906 553.835938 C 910.109375 553.726562 909.5625 553.609375 909.121094 553.488281 C 908.675781 553.367188 908.339844 553.242188 908.113281 553.113281 C 907.886719 552.984375 907.773438 552.851562 907.773438 552.71875 C 907.773438 552.589844 907.886719 552.457031 908.113281 552.328125 C 908.339844 552.199219 908.675781 552.074219 909.121094 551.953125 C 909.5625 551.832031 910.109375 551.714844 910.753906 551.605469 C 911.398438 551.496094 912.132812 551.394531 912.953125 551.300781 C 913.773438 551.207031 914.667969 551.125 915.632812 551.050781 C 916.597656 550.976562 917.617188 550.914062 918.691406 550.863281 C 919.765625 550.816406 920.871094 550.777344 922.007812 550.75 C 923.148438 550.726562 924.296875 550.710938 925.457031 550.710938 C 926.621094 550.710938 927.769531 550.726562 928.910156 550.75 C 930.046875 550.777344 931.152344 550.816406 932.226562 550.863281 C 933.300781 550.914062 934.320312 550.976562 935.285156 551.050781 C 936.25 551.125 937.144531 551.207031 937.964844 551.300781 C 938.785156 551.394531 939.519531 551.496094 940.164062 551.605469 C 940.808594 551.714844 941.351562 551.832031 941.796875 551.953125 C 942.242188 552.074219 942.578125 552.199219 942.804688 552.328125 C 943.03125 552.457031 943.144531 552.589844 943.144531 552.71875 Z M 943.144531 552.71875 " fill-opacity="1" fill-rule="nonzero"/><path fill="#3e9f8e" d="M 926.617188 495.273438 C 910.59375 518.46875 920.125 545.589844 919.933594 546.65625 C 921.839844 549.488281 923.472656 555.027344 925.71875 552.195312 C 940.660156 538.964844 931.320312 505.972656 926.617188 495.273438 Z M 926.617188 495.273438 " fill-opacity="1" fill-rule="nonzero"/><path fill="#2a1c1c" d="M 924.53125 553.957031 C 931.050781 550.421875 935.488281 538.335938 935.269531 530.5625 C 932.910156 533.890625 929.128906 540.160156 924.996094 540.210938 C 921.550781 540.257812 917.714844 534.710938 915.574219 531.410156 C 914.902344 538.757812 916.394531 550.972656 924.53125 553.957031 Z M 924.53125 553.957031 " fill-opacity="1" fill-rule="nonzero"/><path fill="#3e9f8e" d="M 952.816406 512.316406 C 928.296875 526.238281 925.085938 554.804688 924.445312 555.679688 C 924.929688 559.058594 924.753906 560.375 928.011719 558.808594 C 947.222656 553.386719 952.394531 523.992188 952.816406 512.316406 Z M 952.816406 512.316406 " fill-opacity="1" fill-rule="nonzero"/><path fill="#3e9f8e" d="M 903.839844 512.53125 C 912.980469 514.128906 925.800781 555.621094 926.269531 556.601562 C 925.183594 559.839844 924.128906 560.382812 921.199219 558.25 C 903.21875 549.441406 902.136719 524.101562 903.839844 512.53125 Z M 903.839844 512.53125 " fill-opacity="1" fill-rule="nonzero"/><path fill="#2a1c1c" d="M 938.511719 578.277344 C 943.082031 574.878906 943.609375 560.289062 943.144531 552.488281 C 937.777344 555.128906 914.1875 555.003906 907.851562 552.566406 C 908.234375 560.492188 910.074219 576.761719 913.410156 579.046875 C 917.582031 581.90625 932.796875 582.523438 938.511719 578.277344 Z M 938.511719 578.277344 " fill-opacity="1" fill-rule="nonzero"/><path fill="#2a1c1c" d="M 925.457031 537.671875 C 925.25 537.671875 925.054688 537.550781 924.960938 537.351562 C 922.40625 531.679688 923.816406 514.175781 924.917969 505.710938 C 924.957031 505.410156 925.230469 505.203125 925.527344 505.238281 C 925.828125 505.277344 926.035156 505.550781 926 505.847656 C 924.910156 514.207031 923.503906 531.453125 925.957031 536.902344 C 926.082031 537.175781 925.957031 537.5 925.683594 537.621094 C 925.609375 537.65625 925.535156 537.671875 925.457031 537.671875 Z M 925.457031 537.671875 " fill-opacity="1" fill-rule="nonzero"/><path fill="#2a1c1c" d="M 917.117188 549.484375 C 917.011719 549.484375 916.910156 549.453125 916.816406 549.390625 C 909.851562 544.722656 906.765625 523.363281 906.765625 522.070312 C 906.765625 521.769531 907.011719 521.527344 907.3125 521.527344 C 907.613281 521.527344 907.855469 521.769531 907.855469 522.070312 C 907.859375 522.46875 908.605469 528.03125 910.203125 534.039062 C 912.238281 541.6875 914.734375 546.683594 917.421875 548.484375 C 917.675781 548.652344 917.738281 548.988281 917.570312 549.242188 C 917.46875 549.398438 917.292969 549.484375 917.117188 549.484375 Z M 907.855469 522.070312 Z M 907.855469 522.070312 " fill-opacity="1" fill-rule="nonzero"/><path fill="#2a1c1c" d="M 931.871094 550.097656 C 931.703125 550.097656 931.539062 550.027344 931.433594 549.882812 C 931.253906 549.644531 931.300781 549.300781 931.539062 549.121094 C 937.398438 544.699219 944.257812 528.890625 946.488281 522.359375 C 946.589844 522.074219 946.898438 521.921875 947.179688 522.019531 C 947.46875 522.117188 947.617188 522.425781 947.523438 522.710938 C 946.085938 526.910156 938.851562 544.96875 932.195312 549.992188 C 932.097656 550.066406 931.984375 550.097656 931.871094 550.097656 Z M 931.871094 550.097656 " fill-opacity="1" fill-rule="nonzero"/><path fill="#2a1c1c" d="M 846.730469 412.425781 C 848.238281 401.820312 842.886719 402.210938 838.96875 403.304688 C 838.179688 402.765625 839.527344 398.964844 837.527344 398.558594 C 829.980469 397.019531 812.921875 396.15625 807.136719 398.558594 C 804.476562 399.664062 804.996094 421.242188 807.136719 424.105469 C 810.019531 427.964844 833.867188 428.527344 838.96875 424.105469 L 839.300781 418.144531 C 842.183594 420.738281 845.222656 423.035156 846.730469 412.425781 Z M 846.730469 412.425781 " fill-opacity="1" fill-rule="nonzero"/><path fill="#8d4040" d="M 835.53125 400.019531 C 835.53125 400.105469 835.445312 400.191406 835.273438 400.277344 C 835.105469 400.363281 834.851562 400.449219 834.515625 400.53125 C 834.183594 400.613281 833.773438 400.6875 833.285156 400.761719 C 832.800781 400.835938 832.25 400.902344 831.632812 400.964844 C 831.011719 401.027344 830.339844 401.082031 829.613281 401.132812 C 828.886719 401.179688 828.121094 401.222656 827.3125 401.253906 C 826.507812 401.289062 825.675781 401.3125 824.816406 401.332031 C 823.960938 401.347656 823.09375 401.355469 822.21875 401.355469 C 821.347656 401.355469 820.480469 401.347656 819.625 401.332031 C 818.765625 401.3125 817.933594 401.289062 817.125 401.253906 C 816.320312 401.222656 815.550781 401.179688 814.824219 401.132812 C 814.097656 401.082031 813.425781 401.027344 812.808594 400.964844 C 812.191406 400.902344 811.640625 400.835938 811.152344 400.761719 C 810.667969 400.6875 810.257812 400.613281 809.921875 400.53125 C 809.589844 400.449219 809.335938 400.363281 809.167969 400.277344 C 808.996094 400.191406 808.910156 400.105469 808.910156 400.019531 C 808.910156 399.929688 808.996094 399.84375 809.167969 399.757812 C 809.335938 399.671875 809.589844 399.585938 809.921875 399.503906 C 810.257812 399.425781 810.667969 399.347656 811.152344 399.273438 C 811.640625 399.199219 812.191406 399.132812 812.808594 399.070312 C 813.425781 399.007812 814.097656 398.953125 814.824219 398.90625 C 815.550781 398.855469 816.320312 398.8125 817.125 398.78125 C 817.933594 398.746094 818.765625 398.722656 819.625 398.703125 C 820.480469 398.6875 821.347656 398.679688 822.21875 398.679688 C 823.09375 398.679688 823.960938 398.6875 824.816406 398.703125 C 825.675781 398.722656 826.507812 398.746094 827.3125 398.78125 C 828.121094 398.8125 828.886719 398.855469 829.613281 398.90625 C 830.339844 398.953125 831.011719 399.007812 831.632812 399.070312 C 832.25 399.132812 832.800781 399.199219 833.285156 399.273438 C 833.773438 399.347656 834.183594 399.425781 834.515625 399.503906 C 834.851562 399.585938 835.105469 399.671875 835.273438 399.757812 C 835.445312 399.84375 835.53125 399.929688 835.53125 400.019531 Z M 835.53125 400.019531 " fill-opacity="1" fill-rule="nonzero"/><g clip-path="url(#889a165973)"><path fill="#8d4040" d="M 1136.886719 133.867188 L 1002.445312 133.867188 C 995.375 133.867188 989.644531 139.597656 989.644531 146.667969 L 989.644531 172.90625 C 989.644531 179.976562 995.375 185.707031 1002.445312 185.707031 L 1008.050781 185.707031 L 998.523438 211.386719 C 1004.792969 208.578125 1017.042969 199.820312 1020.953125 185.707031 L 1136.886719 185.707031 C 1143.957031 185.707031 1149.6875 179.976562 1149.6875 172.90625 L 1149.6875 146.667969 C 1149.6875 139.597656 1143.957031 133.867188 1136.886719 133.867188 Z M 1136.886719 133.867188 " fill-opacity="1" fill-rule="nonzero"/></g><path fill="#ffffff" d="M 1105.035156 157.867188 C 1105.035156 160.871094 1107.472656 163.308594 1110.476562 163.308594 C 1113.484375 163.308594 1115.917969 160.871094 1115.917969 157.867188 C 1115.917969 154.863281 1113.484375 152.425781 1110.476562 152.425781 C 1107.472656 152.425781 1105.035156 154.863281 1105.035156 157.867188 Z M 1105.035156 157.867188 " fill-opacity="1" fill-rule="nonzero"/><path fill="#ffffff" d="M 1064.226562 157.867188 C 1064.226562 160.871094 1066.660156 163.308594 1069.664062 163.308594 C 1072.671875 163.308594 1075.105469 160.871094 1075.105469 157.867188 C 1075.105469 154.863281 1072.671875 152.425781 1069.664062 152.425781 C 1066.660156 152.425781 1064.226562 154.863281 1064.226562 157.867188 Z M 1064.226562 157.867188 " fill-opacity="1" fill-rule="nonzero"/><path fill="#ffffff" d="M 1028.855469 163.308594 C 1025.847656 163.308594 1023.414062 160.871094 1023.414062 157.867188 C 1023.414062 154.863281 1025.847656 152.425781 1028.855469 152.425781 C 1031.859375 152.425781 1034.296875 154.863281 1034.296875 157.867188 C 1034.296875 160.871094 1031.859375 163.308594 1028.855469 163.308594 Z M 1028.855469 163.308594 " fill-opacity="1" fill-rule="nonzero"/><g clip-path="url(#46b2ae5a50)"><path fill="#8d4040" d="M 1349.449219 400.507812 C 1349.449219 419.507812 1334.039062 434.910156 1315.035156 434.910156 C 1314.632812 434.910156 1314.230469 434.90625 1313.832031 434.890625 L 1303.597656 447 L 1302.609375 432.601562 C 1289.742188 427.621094 1280.617188 415.128906 1280.617188 400.507812 C 1280.617188 381.503906 1296.023438 366.097656 1315.035156 366.097656 C 1334.039062 366.097656 1349.449219 381.503906 1349.449219 400.507812 Z M 1349.449219 400.507812 " fill-opacity="1" fill-rule="nonzero"/></g><path fill="#ffffff" d="M 1295.429688 400.453125 C 1295.429688 402.105469 1294.085938 403.445312 1292.433594 403.445312 C 1290.777344 403.445312 1289.4375 402.105469 1289.4375 400.453125 C 1289.4375 398.796875 1290.777344 397.457031 1292.433594 397.457031 C 1294.085938 397.457031 1295.429688 398.796875 1295.429688 400.453125 Z M 1295.429688 400.453125 " fill-opacity="1" fill-rule="nonzero"/><path fill="#ffffff" d="M 1318.082031 400.453125 C 1318.082031 402.105469 1316.742188 403.445312 1315.089844 403.445312 C 1313.433594 403.445312 1312.09375 402.105469 1312.09375 400.453125 C 1312.09375 398.796875 1313.433594 397.457031 1315.089844 397.457031 C 1316.742188 397.457031 1318.082031 398.796875 1318.082031 400.453125 Z M 1318.082031 400.453125 " fill-opacity="1" fill-rule="nonzero"/><path fill="#ffffff" d="M 1337.742188 403.445312 C 1339.394531 403.445312 1340.738281 402.105469 1340.738281 400.453125 C 1340.738281 398.796875 1339.394531 397.457031 1337.742188 397.457031 C 1336.085938 397.457031 1334.746094 398.796875 1334.746094 400.453125 C 1334.746094 402.105469 1336.085938 403.445312 1337.742188 403.445312 Z M 1337.742188 403.445312 " fill-opacity="1" fill-rule="nonzero"/></svg>