<?xml version="1.0" ?><svg height="48" viewBox="0 0 48 48" width="48" xmlns="http://www.w3.org/2000/svg"><defs><style>.cls-1{fill:none;stroke:#000;stroke-linejoin:round;stroke-width:2px;}</style></defs><title/><g data-name="06-browser" id="_06-browser"><path class="cls-1" d="M6,9H3a2,2,0,0,0-2,2V37a2,2,0,0,0,2,2H45a2,2,0,0,0,2-2V11a2,2,0,0,0-2-2H32"/><line class="cls-1" x1="16" x2="16" y1="39" y2="43"/><path class="cls-1" d="M24,43H14a2,2,0,0,0-2,2v2"/><line class="cls-1" x1="32" x2="32" y1="39" y2="43"/><path class="cls-1" d="M29,43h5a2,2,0,0,1,2,2v2"/><line class="cls-1" x1="9" x2="39" y1="47" y2="47"/><line class="cls-1" x1="1" x2="14" y1="31" y2="31"/><line class="cls-1" x1="42" x2="47" y1="31" y2="31"/><path class="cls-1" d="M32,14V3a2,2,0,0,0-2-2H8A2,2,0,0,0,6,3V21a2,2,0,0,0,2,2h6"/><rect class="cls-1" height="20" rx="2" ry="2" width="28" x="14" y="14"/><line class="cls-1" x1="14" x2="42" y1="20" y2="20"/><line class="cls-1" x1="17" x2="19" y1="17" y2="17"/><line class="cls-1" x1="21" x2="23" y1="17" y2="17"/><line class="cls-1" x1="25" x2="27" y1="17" y2="17"/><line class="cls-1" x1="9" x2="11" y1="4" y2="4"/><line class="cls-1" x1="13" x2="15" y1="4" y2="4"/><line class="cls-1" x1="17" x2="19" y1="4" y2="4"/><line class="cls-1" x1="6" x2="32" y1="7" y2="7"/><line class="cls-1" x1="17" x2="19" y1="25" y2="25"/><line class="cls-1" x1="21" x2="35" y1="25" y2="25"/><line class="cls-1" x1="23" x2="25" y1="29" y2="29"/><line class="cls-1" x1="17" x2="21" y1="29" y2="29"/><line class="cls-1" x1="27" x2="39" y1="29" y2="29"/><line class="cls-1" x1="37" x2="39" y1="25" y2="25"/><polyline class="cls-1" points="14 11 10 11 10 15"/><line class="cls-1" x1="4" x2="6" y1="35" y2="35"/><line class="cls-1" x1="8" x2="10" y1="35" y2="35"/></g></svg>